<svg width="122" height="33" viewBox="0 0 122 33" fill="none" xmlns="http://www.w3.org/2000/svg">
<g id="MITxO-Black" clip-path="url(#clip0_7_2522)">
<g id="Artwork">
<g id="Group">
<path id="Vector" d="M32.6948 32.6949H39.9604V10.8983H32.6948V32.6949ZM43.5931 7.26552H61.7569V0H43.5931V7.26552ZM32.6948 0H39.9604V7.26552H32.6948V0ZM21.7966 32.6949H29.0621V0H21.7966V32.6949ZM10.8983 25.4293H18.1638V0H10.8983V25.4293ZM0 32.6949H7.26552V0H0V32.6949ZM43.5931 32.6949H50.8587V10.8983H43.5931V32.6949Z" fill="black"/>
<g id="Group_2">
<path id="Vector_2" d="M68.4353 25.912C68.4353 21.8347 70.9882 18.805 75.0088 18.805C79.0289 18.805 81.5632 21.8343 81.5632 25.912C81.5632 29.9894 79.0293 33 75.0088 33C70.9882 33 68.4353 29.9894 68.4353 25.912ZM78.7433 25.912C78.7433 23.1875 77.524 21.0723 75.0279 21.0723C72.5317 21.0723 71.2552 23.187 71.2552 25.912C71.2552 28.6175 72.5317 30.7327 75.0279 30.7327C77.524 30.7327 78.7433 28.6175 78.7433 25.912Z" fill="black"/>
<path id="Vector_3" d="M85.3926 24.2546H85.4498C86.1169 23.2065 87.0123 22.6539 88.346 22.6539C90.3658 22.6539 91.7186 24.1783 91.7186 26.3121V32.6949H89.1275V26.6931C89.1275 25.645 88.5177 24.9021 87.4319 24.9021C86.289 24.9021 85.4503 25.8167 85.4503 27.1504V32.6949H82.8592V22.9209H85.393V24.2546H85.3926Z" fill="black"/>
<path id="Vector_4" d="M93.3565 19.072H95.9476V32.6949H93.3565V19.072Z" fill="black"/>
<path id="Vector_5" d="M97.6622 19.072H100.253V21.3965H97.6622V19.072ZM97.6622 22.9209H100.253V32.6949H97.6622V22.9209Z" fill="black"/>
<path id="Vector_6" d="M104.464 24.2546H104.521C105.188 23.2065 106.084 22.6539 107.418 22.6539C109.437 22.6539 110.79 24.1783 110.79 26.3121V32.6949H108.199V26.6931C108.199 25.645 107.589 24.9021 106.503 24.9021C105.361 24.9021 104.522 25.8167 104.522 27.1504V32.6949H101.931V22.9209H104.465V24.2546H104.464Z" fill="black"/>
<path id="Vector_7" d="M111.914 27.7983C111.914 24.9021 113.877 22.6539 116.735 22.6539C119.878 22.6539 121.555 25.0547 121.555 28.5412H114.467C114.658 30.0466 115.496 30.9802 116.964 30.9802C117.973 30.9802 118.564 30.5229 118.85 29.78H121.403C121.041 31.5138 119.497 32.9809 116.983 32.9809C113.743 32.9809 111.914 30.7136 111.914 27.7983ZM114.505 26.7503H118.849C118.773 25.512 117.954 24.6546 116.773 24.6546C115.401 24.6546 114.734 25.4738 114.505 26.7503Z" fill="black"/>
</g>
<g id="Group_3">
<path id="Vector_8" d="M69.0261 0H72.9131L74.8376 6.84004C75.3139 8.5547 75.6949 10.5173 75.6949 10.5173H75.7331C75.7331 10.5173 76.095 8.5547 76.5713 6.84004L78.4953 0H82.4392V13.6229H79.8672V5.81106C79.8672 4.70579 79.9816 2.99112 79.9816 2.99112H79.9434C79.9434 2.99112 79.6387 4.59181 79.3527 5.58219L77.0091 13.6229H74.3608L72.0744 5.58219C71.7888 4.59136 71.4837 2.99112 71.4837 2.99112H71.4455C71.4455 2.99112 71.5599 4.70579 71.5599 5.81106V13.6229H69.0256V0H69.0261Z" fill="black"/>
<path id="Vector_9" d="M84.5539 0H87.3166V13.6229H84.5539V0Z" fill="black"/>
<path id="Vector_10" d="M88.7266 0H99.682V2.32451H95.5857V13.6229H92.8229V2.32451H88.7266V0Z" fill="black"/>
<path id="Vector_11" d="M102.407 8.44072L99.2248 3.84891H102.178L103.912 6.64977H103.95L105.588 3.84891H108.275L105.246 8.42165L108.732 13.6229H105.646L103.836 10.3838H103.798L101.682 13.6229H98.8433L102.407 8.44072Z" fill="black"/>
</g>
</g>
</g>
</g>
<defs>
<clipPath id="clip0_7_2522">
<rect width="121.555" height="33" fill="white"/>
</clipPath>
</defs>
</svg>
