<svg width="129" height="33" viewBox="0 0 129 33" fill="none" xmlns="http://www.w3.org/2000/svg">
<g id="OL_sub-brand_lockup_two-line_rgb_black 1" clip-path="url(#clip0_14_373)">
<path id="Vector" d="M29.7257 29.9685H36.3315V10.1513H29.7257V29.9685ZM39.6343 6.84843H56.1486V0.242706H39.6343V6.84843ZM29.7257 0.242706H36.3315V6.84843H29.7257V0.242706ZM19.8172 29.9685H26.4229V0.242706H19.8172V29.9685ZM9.90858 23.3627H16.5143V0.242706H9.90858V23.3627ZM0 29.9685H6.60572V0.242706H0V29.9685ZM39.6343 29.9685H46.2401V10.1513H39.6343V29.9685Z" fill="#8B959E"/>
<g id="Group">
<path id="Vector_2" d="M63.7071 17.5826H66.2189V27.8724H72.0395V29.9685H63.7071V17.5826Z" fill="#8B959E"/>
<path id="Vector_3" d="M72.5936 25.5165C72.5936 22.8834 74.3779 20.8393 76.9763 20.8393C79.8345 20.8393 81.359 23.022 81.359 26.1921H74.9148C75.0881 27.5606 75.8503 28.4094 77.1842 28.4094C78.1023 28.4094 78.6393 27.9937 78.8991 27.318H81.2204C80.8913 28.8944 79.4881 30.2283 77.2015 30.2283C74.2566 30.2283 72.5936 28.1669 72.5936 25.5165ZM74.9495 24.5637H78.8992C78.8299 23.4377 78.085 22.6582 77.011 22.6582C75.7637 22.6582 75.1574 23.4031 74.9495 24.5637Z" fill="#8B959E"/>
<path id="Vector_4" d="M87.7682 28.981H87.7335C87.2831 29.6566 86.6422 30.1764 85.1178 30.1764C83.2989 30.1764 82.017 29.2236 82.017 27.4567C82.017 25.4991 83.6107 24.8755 85.5856 24.5984C87.058 24.3905 87.7336 24.2692 87.7336 23.5936C87.7336 22.9527 87.2312 22.5369 86.2438 22.5369C85.1351 22.5369 84.5981 22.9353 84.5289 23.7842H82.4327C82.502 22.2251 83.6627 20.8566 86.2611 20.8566C88.9288 20.8566 90.0029 22.0519 90.0029 24.1307V28.6519C90.0029 29.3275 90.1068 29.726 90.3147 29.8818V29.9685H88.0454C87.9068 29.7952 87.8202 29.3795 87.7682 28.981ZM87.7855 26.833V25.4991C87.3698 25.7417 86.7288 25.8802 86.1399 26.0188C84.9099 26.296 84.3036 26.5732 84.3036 27.4047C84.3036 28.2362 84.8579 28.5306 85.6894 28.5306C87.0406 28.5307 87.7855 27.6992 87.7855 26.833Z" fill="#8B959E"/>
<path id="Vector_5" d="M93.7616 22.5023H93.8136C94.3506 21.4975 94.9569 20.9778 95.9963 20.9778C96.2561 20.9778 96.412 20.9952 96.5506 21.0472V23.1086H96.4987C94.9569 22.9527 93.8482 23.7669 93.8482 25.6378V29.9685H91.4924V21.0818H93.7617L93.7616 22.5023Z" fill="#8B959E"/>
<path id="Vector_6" d="M99.8765 22.2944H99.9284C100.535 21.3417 101.349 20.8393 102.562 20.8393C104.398 20.8393 105.628 22.2251 105.628 24.1653V29.9685H103.272V24.5118C103.272 23.559 102.717 22.8834 101.73 22.8834C100.691 22.8834 99.9284 23.715 99.9284 24.9276V29.9686H97.5726V21.0818H99.8765L99.8765 22.2944Z" fill="#8B959E"/>
<path id="Vector_7" d="M107.083 17.5826H109.439V19.696H107.083V17.5826ZM107.083 21.0818H109.439V29.9685H107.083V21.0818Z" fill="#8B959E"/>
<path id="Vector_8" d="M113.267 22.2944H113.319C113.925 21.3417 114.739 20.8393 115.952 20.8393C117.788 20.8393 119.018 22.2251 119.018 24.1653V29.9685H116.662V24.5118C116.662 23.559 116.108 22.8834 115.12 22.8834C114.081 22.8834 113.319 23.715 113.319 24.9276V29.9686H110.963V21.0818H113.267L113.267 22.2944Z" fill="#8B959E"/>
<path id="Vector_9" d="M120.23 30.2283H122.569C122.76 30.7827 123.262 31.2157 124.353 31.2157C125.687 31.2157 126.328 30.5748 126.328 29.3622V28.3921H126.276C125.756 28.9811 125.081 29.4314 123.955 29.4314C121.98 29.4314 120.04 27.8724 120.04 25.1873C120.04 22.5369 121.634 20.8393 123.886 20.8393C124.994 20.8393 125.808 21.2723 126.345 22.0173H126.38V21.0818H128.649V29.2929C128.649 30.5401 128.251 31.389 127.593 31.9953C126.848 32.6882 125.705 33 124.388 33C121.963 33 120.473 31.9606 120.23 30.2283ZM126.449 25.1354C126.449 23.8361 125.756 22.7275 124.336 22.7275C123.141 22.7275 122.344 23.6629 122.344 25.1527C122.344 26.6598 123.141 27.5432 124.353 27.5432C125.843 27.5433 126.449 26.4519 126.449 25.1354Z" fill="#8B959E"/>
</g>
<g id="Group_2">
<path id="Vector_10" d="M63.1701 6.46147C63.1701 2.75438 65.4914 0 69.1465 0C72.8017 0 75.1056 2.75438 75.1056 6.46147C75.1056 10.1686 72.8017 12.9056 69.1465 12.9056C65.4914 12.9056 63.1701 10.1686 63.1701 6.46147ZM72.5418 6.46147C72.5418 3.98428 71.4331 2.06144 69.1638 2.06144C66.8946 2.06144 65.7339 3.98428 65.7339 6.46147C65.7339 8.92132 66.8945 10.8442 69.1638 10.8442C71.4332 10.8442 72.5418 8.92132 72.5418 6.46147Z" fill="#8B959E"/>
<path id="Vector_11" d="M76.2834 3.74178H78.5527V4.85047H78.6047C79.1763 4.07095 80.0078 3.49927 81.2204 3.49927C83.5763 3.49927 85.0834 5.42211 85.0834 8.19379C85.0834 11.0694 83.5243 12.8883 81.2377 12.8883C79.9905 12.8883 79.1763 12.3859 78.6739 11.6237H78.6393V15.5387H76.2834V3.74178ZM82.6929 8.26307C82.6929 6.58278 82.1038 5.40481 80.6487 5.40481C79.1763 5.40481 78.5873 6.66939 78.5873 8.26307C78.5873 9.87408 79.3322 10.9308 80.7353 10.9308C81.9307 10.9308 82.6929 9.9434 82.6929 8.26307Z" fill="#8B959E"/>
<path id="Vector_12" d="M85.7415 8.17645C85.7415 5.54337 87.5258 3.49927 90.1242 3.49927C92.9825 3.49927 94.507 5.68196 94.507 8.85205H88.0628C88.236 10.2205 88.9982 11.0694 90.3321 11.0694C91.2502 11.0694 91.7873 10.6536 92.0471 9.97799H94.3684C94.0392 11.5544 92.6361 12.8883 90.3494 12.8883C87.4045 12.8883 85.7415 10.8268 85.7415 8.17645ZM88.0975 7.2237H92.0471C91.9778 6.09771 91.2329 5.31819 90.1589 5.31819C88.9117 5.31815 88.3054 6.06303 88.0975 7.2237Z" fill="#8B959E"/>
<path id="Vector_13" d="M97.902 4.95438H97.9539C98.5603 4.00163 99.3744 3.49927 100.587 3.49927C102.423 3.49927 103.653 4.88507 103.653 6.82529V12.6285H101.297V7.17176C101.297 6.21901 100.743 5.54341 99.7555 5.54341C98.7162 5.54341 97.9539 6.37494 97.9539 7.58755V12.6285H95.5981V3.74178H97.902L97.902 4.95438Z" fill="#8B959E"/>
</g>
</g>
<defs>
<clipPath id="clip0_14_373">
<rect width="128.649" height="33" fill="white"/>
</clipPath>
</defs>
</svg>
